<?xml version="1.0" encoding="utf-8"?>
<!-- Generator: Adobe Illustrator 23.0.3, SVG Export Plug-In . SVG Version: 6.00 Build 0)  -->
<svg version="1.1" id="Layer_1" xmlns="http://www.w3.org/2000/svg" xmlns:xlink="http://www.w3.org/1999/xlink" x="0px" y="0px"
	 viewBox="0 0 190 141" style="enable-background:new 0 0 190 141;" xml:space="preserve">
<style type="text/css">
	.st0{fill:#FFFFFF;}
	.st1{fill:#757575;}
	.st2{fill:#424242;}
	.st3{fill:#64B5F6;}
</style>
<g>
	<path class="st0" d="M70,70.5l19.9,19.9L70,70.5z M95,45.5l24.9,25l-25,25l0.1,0.1l25.1-25.1L95,45.5z"/>
	<path class="st1" d="M190,70.5l-70,70l-25.1-25.1l-10-10L50,70.5l34.9-35l10,10L70,70.5l19.9,19.9l5,5.1l10,10l15.1,15.1l50-50
		l-50-50l-15.1,15.1l-10-10L120,0.5L190,70.5z"/>
	<path class="st2" d="M140,70.5l-35.1,35l-10-10l0.1,0.1l25.1-25.1L95,45.5h-0.1l-10-10l-15-15.1L20,70.5l49.9,50l15-15.1l10,10
		l-25,25.1L0,70.5l69.9-70l25,25.1l10,10L140,70.5z"/>
	<path class="st3" d="M119.9,70.5l-25,25.1l-5.1-5.1l-19.9-20l25-25L119.9,70.5z"/>
</g>
</svg>
